<svg xmlns="http://www.w3.org/2000/svg" aria-hidden="true" style="position:absolute;width:0;height:0;overflow:hidden">
  <defs>
    <symbol id="icon-vector" viewBox="0 0 40 32">
      <path d="M33.782 1.02C34.473.358 35.393-.007 36.347 0s1.869.387 2.55 1.059c.681.672 1.076 1.584 1.101 2.543s-.321 1.891-.966 2.598L19.454 30.817a3.6743 3.6743 0 0 1-2.629 1.182c-.495.009-.986-.082-1.445-.268s-.876-.463-1.226-.815L1.17 17.862c-.362-.339-.652-.747-.853-1.201s-.309-.944-.318-1.441.082-.99.267-1.451c.185-.461.461-.879.81-1.231s.766-.628 1.224-.814.949-.277 1.443-.269a3.6754 3.6754 0 0 1 2.628 1.177l10.275 10.325 17.042-21.83c.031-.038.063-.074.098-.109h-.005z"/>
    </symbol>
    <symbol id="icon-email" viewBox="0 0 24 32">
      <path d="M20 8H4c-1.1 0-1.99.9-1.99 2L2 22c0 1.1.9 2 2 2h16c1.1 0 2-.9 2-2V10c0-1.1-.9-2-2-2zm-.4 4.25-7.07 4.42c-.32.2-.74.2-1.06 0L4.4 12.25c-.25-.16-.4-.43-.4-.72 0-.67.73-1.07 1.3-.72L12 15l6.7-4.19c.57-.35 1.3.05 1.3.72 0 .29-.15.56-.4.72z"/>
    </symbol>
    <symbol id="icon-phone" viewBox="0 0 24 32">
      <path d="m19.635 18.487-2.451-.28c-.589-.067-1.167.135-1.582.55l-1.775 1.775c-2.731-1.389-4.969-3.618-6.359-6.359l1.785-1.785c.415-.415.618-.994.55-1.582l-.28-2.432c-.116-.975-.936-1.708-1.92-1.708H5.934c-1.09 0-1.997.907-1.93 1.997.511 8.24 7.102 14.821 15.332 15.332 1.09.068 1.997-.839 1.997-1.93v-1.669c.01-.975-.724-1.795-1.698-1.911z"/>
    </symbol>
    <symbol id="icon-person" viewBox="0 0 32 32">
      <path d="M16 16c2.947 0 5.333-2.387 5.333-5.333S18.946 5.334 16 5.334c-2.947 0-5.333 2.387-5.333 5.333S13.054 16 16 16zm0 2.667c-3.56 0-10.667 1.787-10.667 5.333v1.333c0 .733.6 1.333 1.333 1.333h18.667c.733 0 1.333-.6 1.333-1.333V24c0-3.547-7.107-5.333-10.667-5.333z"/>
    </symbol>
    <symbol id="icon-close" viewBox="0 0 32 32">
      <path d="M32 3.223 28.777 0 16 12.777 3.223 0 0 3.223 12.777 16 0 28.777 3.223 32 16 19.223 28.777 32 32 28.777 19.223 16 32 3.223z"/>
    </symbol>
    <symbol id="icon-frame" viewBox="0 0 32 32">
      <path d="m32 2.667-32 15 10.227 3.156L26 8.5 14.002 21.988l.01.003-.012-.003v7.345l5.735-5.576L27 25.999l5-23.333z"/>
    </symbol>
    <symbol id="icon-icon-1" viewBox="0 0 32 32">
      <path fill="#2e2f42" d="m30.773 22.098-8.443-8.505.937-4.615c.242.094.499.144.758.146h.006c1.192.014 2.17-.941 2.184-2.133s-.941-2.17-2.133-2.184c-1.192-.014-2.17.941-2.184 2.133-.003.255.039.509.125.749l-4.96.605L8.972.161a.534.534 0 0 0-.377-.16.5319.5319 0 0 0-.373.155L6.709 1.66a.5335.5335 0 0 0 0 .754l.814.826C4.37 9.038 5.394 16.218 10.042 20.903c.043.041.092.074.146.098-.034.18-.051.364-.052.547v6.187h-6.4c-1.472.002-2.665 1.195-2.667 2.667v1.067c0 .295.239.533.533.533h24.533c.295 0 .533-.239.533-.533v-1.067c-.002-1.472-1.195-2.665-2.667-2.667h-6.4v-2.742c1.003.21 2.024.317 3.049.32a14.854 14.854 0 0 0 7.04-1.783l.818.823a.534.534 0 0 0 .377.16c.14-.001.274-.056.373-.155l1.513-1.504a.5335.5335 0 0 0 0-.754zM23.28 6.233c.418-.415 1.093-.414 1.509.004s.414 1.093-.004 1.508c-.2.199-.47.31-.752.31h-.003c-.589-.003-1.064-.483-1.061-1.072.002-.282.115-.552.314-.751h-.002zm-1.256 3.505-.598 2.946-1.175-1.182 1.774-1.763zm-.605-.902-1.92 1.909-1.485-1.493 3.405-.415zM24.004 28.8c.884 0 1.6.716 1.6 1.6v.533H2.137V30.4c0-.884.716-1.6 1.6-1.6h20.267zm-7.467-2.133v1.067h-5.333v-1.067h5.333zM11.204 25.6v-4.053c0-1.294 1.196-2.347 2.667-2.347s2.667 1.053 2.667 2.347V25.6h-5.333zm6.4-1.696v-2.357c0-1.882-1.675-3.413-3.733-3.413a3.8003 3.8003 0 0 0-3.281 1.786C6.532 15.646 5.619 9.275 8.311 4.033l18.602 18.708a13.8184 13.8184 0 0 1-9.309 1.163zm11.289-.684L7.836 2.039l.755-.752 7.935 7.98c.004 0 .006.007.01.01l13.115 13.191-.757.752z" style="fill:var(--color1, #2e2f42)"/>
      <path fill="#4d5ae5" d="M13.876 20.267h-.005c-.884-.001-1.601.714-1.602 1.598s.714 1.601 1.598 1.602h.005c.884.001 1.601-.714 1.602-1.598s-.714-1.601-1.598-1.602zm.373 1.978c-.1.1-.236.156-.378.155a.5343.5343 0 0 1-.531-.536.5325.5325 0 0 1 .53-.53c.295.002.532.242.531.536a.5325.5325 0 0 1-.157.375h.005z" style="fill:var(--color2, #4d5ae5)"/>
    </symbol>
    <symbol id="icon-icon-4" viewBox="0 0 33 32">
      <path fill="#4d5ae5" d="M31.512 4.196a.4937.4937 0 0 0-.399-.336l-1.772-.258-.793-1.606c-.166-.338-.721-.338-.887 0l-.793 1.606-1.772.258a.4964.4964 0 0 0-.4.336c-.058.179-.01.376.125.507l1.283 1.25-.303 1.765c-.032.186.045.373.196.484.154.112.355.126.521.038l1.585-.834 1.585.834a.4964.4964 0 0 0 .522-.037.4927.4927 0 0 0 .196-.484l-.303-1.765 1.283-1.25a.4969.4969 0 0 0 .125-.507zm-2.284 1.231a.495.495 0 0 0-.142.438l.177 1.033-.928-.488a.4964.4964 0 0 0-.462 0l-.928.488.177-1.033a.4958.4958 0 0 0-.142-.438l-.751-.732 1.038-.151c.161-.023.3-.125.372-.271l.464-.94.464.94c.072.146.211.247.372.271l1.038.151-.75.732zM26.095 19.035h-.989v.989h.989v-.989zM26.095 21.014h-.989v.989h.989v-.989zM27.084 20.024h-.989v.989h.989v-.989zM25.105 20.024h-.989v.989h.989v-.989zM22.632 24.477h-.989v.989h.989v-.989zM22.632 26.455h-.989v.989h.989v-.989z" style="fill:var(--color2, #4d5ae5)"/>
      <path fill="#4d5ae5" d="M23.621 25.466h-.989v.989h.989v-.989zM21.643 25.466h-.989v.989h.989v-.989zM16.696 22.498h-.989v.989h.989v-.989zM16.696 24.477h-.989v.989h.989v-.989z" style="fill:var(--color2, #4d5ae5)"/>
      <path fill="#4d5ae5" d="M17.685 23.487h-.989v.989h.989v-.989zM15.706 23.487h-.989v.989h.989v-.989zM7.296 5.678h-.989v.989h.989v-.989zM7.296 7.657h-.989v.989h.989v-.989zM8.286 6.668h-.989v.989h.989v-.989zM6.307 6.668h-.989v.989h.989v-.989z" style="fill:var(--color2, #4d5ae5)"/>
      <path fill="#2e2f42" d="M24.779 13.133c-.267-.36-.658-.591-1.102-.653-.446-.063-.887.054-1.243.326l-1.162.89-1.76 1.314-1.259-.502c2.246-1.008 3.816-3.254 3.816-5.862 0-3.546-2.896-6.431-6.457-6.431S9.155 5.1 9.155 8.646c0 1.285.384 2.48 1.039 3.486L7.63 12.11h-.004c-.008 0-.014.004-.022.005a.4791.4791 0 0 0-.144.029c-.012.005-.024.007-.036.012-.006.002-.012.003-.018.006l-2.999 1.481h-.001l-1.756.845a.3421.3421 0 0 0-.058.033c-.7.466-.938 1.381-.555 2.129.204.398.552.691.979.825.165.051.333.077.5.077.269 0 .535-.066.779-.196l1.287-.685 2.1-1.084 1.258-.007-5.047 5.023s-.001 0-.002.001l-1.242 1.237c-.293.292-.455.679-.455 1.092s.161.801.455 1.093c.301.3.698.45 1.094.45s.792-.15 1.095-.45l1.219-1.214 1.615-1.206.836.832-1.634 1.627c0 .001-.001.001-.001.001l-1.242 1.237c-.293.292-.455.679-.455 1.092s.161.801.455 1.093c.301.3.698.45 1.094.45s.793-.15 1.095-.45l3.229-3.215c.001-.001.001-.001.001-.002l.937-.928-.003-.003c.006-.006.014-.008.02-.014l4.792-5.248 3.219.458c.023.003.047.005.07.005.06 0 .118-.014.174-.036.016-.006.031-.014.046-.022.018-.009.037-.014.053-.025l2.98-1.979c.011-.007.017-.019.027-.027.012-.009.027-.013.038-.024l1.179-1.105a1.651 1.651 0 0 0 .197-2.191zM3.831 16.482a.6632.6632 0 0 1-.518.048.6629.6629 0 0 1-.197-1.169l1.218-.586.417 1.217-.92.489zm3.244-1.695-1.436.742-.407-1.19 1.88-.928-.037 1.376zM21.08 8.646c0 .852-.203 1.655-.556 2.374l-3.878-1.762c-.041-.532-.317-.997-.731-1.287l1.358-4.508c2.205.702 3.807 2.759 3.807 5.183zm-10.935 0c0-3 2.453-5.442 5.467-5.442.234 0 .464.02.691.048l-1.328 4.409c-.018 0-.035-.005-.053-.005-.958 0-1.737.777-1.737 1.731s.779 1.731 1.737 1.731c.644 0 1.201-.356 1.501-.876l3.583 1.628c-.997 1.342-2.592 2.217-4.393 2.217-3.015 0-5.467-2.441-5.467-5.442zm5.525.743c0 .409-.335.742-.748.742s-.747-.333-.747-.742.335-.742.747-.742.748.333.748.742zM4.141 23.324c-.219.217-.574.217-.792 0-.105-.105-.163-.244-.163-.392s.058-.286.163-.391l.892-.889.79.786-.889.885zm2.981 3.463c-.219.217-.574.218-.793 0-.105-.105-.163-.244-.163-.392s.058-.286.163-.391l.893-.889.79.786-.89.886zm3.23-3.218c-.001 0-.001 0-.002.001l-1.637 1.632-.79-.786 1.635-1.628s.001 0 .001-.001c.037-.037.06-.082.083-.126.006-.013.019-.024.024-.037.015-.038.018-.079.024-.119.003-.023.013-.044.013-.067 0-.033-.012-.065-.019-.098-.006-.03-.006-.06-.017-.089-.019-.047-.051-.088-.085-.128-.009-.011-.013-.025-.023-.035h-.001c-.001 0-.001-.002-.001-.002l-1.49-1.484c-.016-.016-.036-.022-.054-.036-.026-.02-.051-.039-.081-.053-.028-.014-.057-.022-.087-.03a.44.44 0 0 0-.096-.018c-.03-.002-.058.001-.089.004-.033.004-.064.008-.096.019a.4428.4428 0 0 0-.088.042c-.018.01-.039.014-.056.027l-1.645 1.228-.836-.832 2.225-2.213 4.045 3.978-.86.852zm6.324-6.508c-.014-.002-.028.003-.042.003a.4808.4808 0 0 0-.107.006.467.467 0 0 0-.082.02.468.468 0 0 0-.09.044.4793.4793 0 0 0-.077.057c-.012.01-.026.015-.037.027l-4.358 4.773-4.014-3.948 2.628-2.614a.4964.4964 0 0 0 .002-.7.4995.4995 0 0 0-.354-.145l-2.058.012.026-1.491 2.879.025c1.173 1.2 2.81 1.949 4.62 1.949.406 0 .801-.042 1.187-.114.037.03.074.06.12.079l2.235.89.141.703.165.821-2.785-.396zm3.749.165-.29-1.445 1.342-1.002.878 1.165-1.929 1.281zm3.481-2.625-.777.728-.864-1.147.771-.591c.144-.111.326-.156.504-.133.179.025.337.119.445.264.201.271.167.648-.079.879z" style="fill:var(--color1, #2e2f42)"/>
      <path fill="#2e2f42" d="m14.472 17.2-1.988-1.979c-.192-.192-.505-.192-.698 0L9.799 17.2c-.093.093-.145.219-.145.351s.052.258.145.351l1.987 1.979c.096.096.223.144.349.144s.253-.048.349-.144l1.988-1.979c.093-.093.146-.219.146-.351s-.052-.258-.146-.351zm-2.337 1.632-1.286-1.281 1.286-1.281 1.287 1.281-1.287 1.281zM17.776 4.703l-.239.961c.066.016 1.612.419 1.612 1.993h.989c0-1.871-1.545-2.751-2.362-2.954zM20.138 8.646h-.989v.989h.989v-.989z" style="fill:var(--color1, #2e2f42)"/>
    </symbol>
    <symbol id="icon-icon-3" viewBox="0 0 32 32">
      <path fill="#2e2f42" d="M31.297 15.301C31.295 6.849 24.442-.002 15.989 0S.686 6.855.688 15.308c.001 6.658 4.307 12.551 10.649 14.576.061.019.124.029.187.029.121 0 .239-.032.342-.094.135-.08.236-.207.283-.356l3.865-12.25c1.057-.005 1.909-.866 1.903-1.923s-.866-1.909-1.923-1.903c-.284.001-.565.067-.82.191l-5.106-5.107a.6372.6372 0 0 0-.902.016.637.637 0 0 0 0 .886l5.103 5.109c-.392.799-.168 1.764.536 2.309l-3.683 11.673C3.844 25.783.118 17.71 2.799 10.432S13.553-.572 20.831 2.109c7.278 2.681 11.004 10.754 8.323 18.032a14.0422 14.0422 0 0 1-7.462 7.973l-.398-1.874a.6373.6373 0 0 0-.756-.492.643.643 0 0 0-.293.148l-3.837 3.426a.6366.6366 0 0 0-.052.9c.076.085.174.149.283.184l4.899 1.564c.335.108.694-.077.802-.412.034-.106.04-.219.017-.328l-.391-1.839c5.664-2.388 9.342-7.942 9.329-14.089zm-15.305-.637c.352 0 .638.286.638.638s-.286.638-.638.638c-.352 0-.638-.285-.638-.638s.285-.638.638-.638zm2.101 14.864 2.184-1.948.603 2.84-2.787-.892z" style="fill:var(--color1, #2e2f42)"/>
      <path fill="#4d5ae5" d="M15.354 3.185V4.46c0 .352.285.638.638.638s.638-.285.638-.638V3.185c0-.352-.286-.638-.638-.638s-.638.286-.638.638zM3.876 14.664c-.352 0-.638.286-.638.638s.285.638.638.638h1.275c.352 0 .638-.285.638-.638s-.285-.638-.638-.638H3.876zM28.108 15.939c.352 0 .638-.285.638-.638s-.285-.638-.638-.638h-1.275c-.352 0-.638.286-.638.638s.286.638.638.638h1.275z" style="fill:var(--color2, #4d5ae5)"/>
    </symbol>
    <symbol id="icon-icon-2" viewBox="0 0 35 32">
      <path fill="#4d5ae5" d="M16.665 14.734h1.05v4.724h-1.05v-4.724zM20.864 16.834h1.05v2.624h-1.05v-2.624zM12.466 18.408h1.05v1.05h-1.05v-1.05zM9.317 17.883h1.05v1.575h-1.05v-1.575z" style="fill:var(--color2, #4d5ae5)"/>
      <path fill="#2e2f42" d="M3.544 27.856h25.193c.87 0 1.575-.705 1.575-1.575v-2.099c0-.87-.705-1.575-1.575-1.575h-.525V9.518l2.981-2.824c.692.341 1.529.134 1.982-.491s.39-1.485-.15-2.037-1.398-.634-2.033-.195-.86 1.272-.534 1.971l-2.246 2.129V6.86c0-.87-.705-1.575-1.575-1.575H5.643c-.87 0-1.575.705-1.575 1.575v15.746h-.525c-.87 0-1.575.705-1.575 1.575v2.099c0 .87.705 1.575 1.575 1.575zM31.886 4.762a.525.525 0 1 1 0 1.05.525.525 0 1 1 0-1.05zm-26.768 2.1c0-.29.235-.525.525-.525h20.994c.29 0 .525.235.525.525v2.204l-1.05.997V7.911a.525.525 0 0 0-.525-.525H6.692a.525.525 0 0 0-.525.525v13.121c0 .29.235.525.525.525h18.895c.29 0 .525-.235.525-.525v-9.525l1.05-.995v12.095H5.118V6.861zm4.724 6.823c-.71-.002-1.334.471-1.522 1.156s.104 1.411.714 1.773c.61.362 1.388.271 1.899-.222l1.824.915c.212.106.469.056.627-.121l3.878-4.363 3.812 2.857c.204.153.49.137.676-.039l3.313-3.139v8.006H7.218V8.436h17.845v2.619l-3.713 3.517-3.844-2.882a.5244.5244 0 0 0-.707.071l-3.932 4.424-1.47-.735c.011-.063.017-.127.02-.19 0-.87-.705-1.575-1.575-1.575zm.525 1.574a.525.525 0 1 1-1.05 0 .525.525 0 1 1 1.05 0zm3.149 8.398h5.249v.525c0 .29-.235.525-.525.525h-4.199a.525.525 0 0 1-.525-.525v-.525zm-10.497.525c0-.29.235-.525.525-.525h8.923v.525c0 .87.705 1.575 1.575 1.575h4.199c.869 0 1.575-.705 1.575-1.575v-.525h8.922c.29 0 .525.235.525.525v2.099c0 .29-.235.525-.525.525H3.545a.525.525 0 0 1-.525-.525v-2.099z" style="fill:var(--color1, #2e2f42)"/>
    </symbol>
    <symbol id="icon-facebook" viewBox="0 0 32 32">
      <path d="M21.329 5.313h2.921V.225C23.746.156 22.013 0 19.994 0c-4.212 0-7.097 2.649-7.097 7.519V12H8.249v5.688h4.648V32h5.699V17.689h4.46l.708-5.688h-5.169V8.082c.001-1.644.444-2.769 2.735-2.769z"/>
    </symbol>
    <symbol id="icon-instagram" viewBox="0 0 32 32">
      <path d="M31.969 9.408c-.075-1.7-.35-2.869-.744-3.882-.406-1.075-1.031-2.038-1.851-2.838A7.8671 7.8671 0 0 0 26.542.844C25.523.45 24.361.175 22.66.1 20.947.019 20.403 0 16.059 0s-4.888.019-6.595.094c-1.7.075-2.869.35-3.882.744-1.075.406-2.038 1.031-2.838 1.85C1.931 3.488 1.3 4.457.9 5.52.506 6.539.231 7.702.156 9.402c-.081 1.713-.1 2.257-.1 6.601s.019 4.888.094 6.595c.075 1.7.35 2.869.744 3.882.406 1.075 1.038 2.038 1.85 2.838.8.813 1.769 1.444 2.832 1.844 1.019.394 2.182.669 3.882.744 1.706.075 2.25.094 6.595.094s4.888-.019 6.595-.094c1.7-.075 2.869-.35 3.882-.744a8.1814 8.1814 0 0 0 4.682-4.682c.394-1.019.669-2.182.744-3.882.075-1.707.094-2.25.094-6.595s-.006-4.888-.081-6.595zm-2.882 13.065c-.069 1.563-.331 2.407-.55 2.969-.538 1.394-1.644 2.501-3.038 3.038-.563.219-1.413.481-2.969.55-1.688.075-2.194.094-6.464.094s-4.782-.019-6.464-.094c-1.563-.069-2.407-.331-2.969-.55-.694-.256-1.325-.663-1.838-1.194-.531-.519-.938-1.144-1.194-1.838-.219-.563-.481-1.413-.55-2.969-.075-1.688-.094-2.194-.094-6.464s.019-4.782.094-6.464c.069-1.563.331-2.407.55-2.969.256-.694.663-1.325 1.2-1.838.519-.531 1.144-.938 1.838-1.194.563-.219 1.413-.481 2.969-.55 1.688-.075 2.194-.094 6.464-.094 4.276 0 4.782.019 6.464.094 1.563.069 2.407.331 2.969.55.694.256 1.325.662 1.838 1.194.531.519.938 1.144 1.194 1.838.219.563.481 1.413.55 2.969.075 1.688.094 2.194.094 6.464s-.019 4.77-.094 6.458z"/>
      <path d="M16.059 7.783c-4.538 0-8.22 3.682-8.22 8.22s3.682 8.22 8.22 8.22c4.539 0 8.22-3.682 8.22-8.22s-3.682-8.22-8.22-8.22zm0 13.552c-2.944 0-5.332-2.388-5.332-5.332s2.388-5.332 5.332-5.332c2.945 0 5.332 2.388 5.332 5.332s-2.388 5.332-5.332 5.332zM26.524 7.458c0 1.06-.859 1.919-1.919 1.919s-1.919-.859-1.919-1.919.859-1.919 1.919-1.919 1.919.859 1.919 1.919z"/>
    </symbol>
    <symbol id="icon-linkedin" viewBox="0 0 32 32">
      <path d="M31.992 32v-.001H32V20.263c0-5.741-1.236-10.164-7.948-10.164-3.227 0-5.392 1.771-6.276 3.449h-.093v-2.913h-6.364v21.364h6.627V21.42c0-2.785.528-5.479 3.977-5.479 3.399 0 3.449 3.179 3.449 5.657v10.401h6.62zM.528 10.636h6.635V32H.528V10.636zM3.843 0C1.722 0 0 1.721 0 3.843s1.721 3.879 3.843 3.879c2.121 0 3.843-1.757 3.843-3.879C7.685 1.722 5.963 0 3.843 0z"/>
    </symbol>
    <symbol id="icon-twitter" viewBox="0 0 32 32">
      <path d="M32 6.078c-1.19.522-2.458.868-3.78 1.036 1.36-.812 2.398-2.088 2.886-3.626-1.268.756-2.668 1.29-4.16 1.588C25.742 3.794 24.026 3 22.154 3c-3.632 0-6.556 2.948-6.556 6.562 0 .52.044 1.02.152 1.496-5.454-.266-10.28-2.88-13.522-6.862-.566.982-.898 2.106-.898 3.316 0 2.272 1.17 4.286 2.914 5.452-1.054-.02-2.088-.326-2.964-.808v.072c0 3.188 2.274 5.836 5.256 6.446-.534.146-1.116.216-1.72.216-.42 0-.844-.024-1.242-.112.85 2.598 3.262 4.508 6.13 4.57-2.232 1.746-5.066 2.798-8.134 2.798-.538 0-1.054-.024-1.57-.09C2.906 27.93 6.35 29 10.064 29c12.072 0 18.672-10 18.672-18.668 0-.29-.01-.57-.024-.848C30.014 8.56 31.108 7.406 32 6.078z"/>
    </symbol>
  </defs>
</svg>
